<?xml version="1.0" standalone="no"?>
<!DOCTYPE svg PUBLIC "-//W3C//DTD SVG 20010904//EN"
 "http://www.w3.org/TR/2001/REC-SVG-20010904/DTD/svg10.dtd">
<svg version="1.0" xmlns="http://www.w3.org/2000/svg"
 width="400.000000pt" height="400.000000pt" viewBox="0 0 400.000000 400.000000"
 preserveAspectRatio="xMidYMid meet">

<g transform="translate(0.000000,400.000000) scale(0.100000,-0.100000)"
fill="#000000" stroke="none">
<path d="M2325 3416 c-102 -20 -214 -60 -353 -126 -150 -72 -222 -115 -318
-191 -244 -194 -356 -503 -278 -769 22 -78 23 -76 7 18 -3 18 -1 32 4 32 6 0
14 -24 17 -52 4 -29 11 -57 16 -63 7 -8 -8 -17 -48 -29 -31 -10 -73 -26 -92
-36 -19 -9 -47 -23 -61 -30 -38 -17 -51 -51 -37 -92 17 -50 56 -107 114 -168
44 -46 52 -59 47 -82 -3 -15 -10 -25 -15 -22 -5 4 -5 -2 1 -12 37 -68 43 -94
31 -127 -8 -17 -20 -39 -27 -48 -8 -10 -18 -43 -23 -75 -5 -33 -12 -78 -15
-101 -11 -62 -1 -87 61 -148 30 -31 52 -60 48 -66 -3 -6 -25 -20 -48 -30 -22
-10 -34 -19 -26 -19 11 0 9 -4 -5 -13 -15 -9 -109 -12 -357 -12 -236 0 -340
-3 -348 -11 -9 -9 -3 -29 23 -80 54 -108 192 -423 212 -484 41 -125 120 -310
134 -310 4 0 5 17 3 37 l-5 38 39 -35 40 -35 -36 -12 c-31 -10 -32 -12 -10
-13 48 -3 177 -7 555 -14 406 -8 614 -24 710 -54 59 -18 60 -18 95 2 19 11 85
57 146 101 129 94 321 220 335 220 5 0 13 5 17 12 9 15 977 11 1032 -4 64 -18
115 33 76 76 -23 25 -22 62 2 54 9 -3 -7 18 -36 48 -58 58 -76 86 -85 135 -5
24 -1 36 13 49 15 14 20 15 20 4 0 -8 23 33 50 91 61 127 64 167 20 228 -16
23 -52 58 -80 79 l-50 37 0 66 c0 36 4 70 10 76 5 5 16 37 25 72 9 34 30 93
48 130 40 85 40 148 2 243 -30 76 -78 137 -133 170 -72 43 -172 121 -172 134
0 7 7 18 16 26 24 20 53 82 60 131 3 23 22 78 41 121 19 42 37 93 40 112 13
81 -57 174 -176 235 -69 34 -81 50 -164 217 -72 142 -133 210 -235 260 -67 34
-86 38 -165 42 -49 1 -116 -2 -148 -8 -52 -11 -62 -10 -99 9 -118 60 -335 91
-465 66z m370 -61 c48 -9 95 -20 104 -25 14 -7 12 -10 -9 -18 -20 -8 -28 -6
-40 8 -10 12 -33 19 -73 22 -32 3 -63 10 -69 16 -15 15 -18 15 87 -3z m516
-82 c26 -14 66 -46 90 -71 32 -34 35 -38 9 -16 -19 18 -71 53 -115 79 -81 47
-69 54 16 8z m-1236 -41 c-6 -5 -63 -44 -128 -87 -177 -117 -319 -258 -413
-412 -44 -72 -36 -35 16 73 70 145 202 265 413 375 112 59 129 66 112 51z
m571 -434 c-1 -159 0 -164 26 -215 l28 -52 -38 -10 c-20 -6 -44 -11 -52 -11
-22 0 -133 -54 -184 -90 -55 -37 -181 -195 -221 -276 -17 -33 -35 -59 -42 -57
-18 6 -81 -23 -93 -44 -11 -17 -15 -15 -58 25 -25 24 -74 59 -109 78 l-62 35
69 103 c87 131 146 202 285 345 109 112 145 142 239 196 56 33 54 17 -2 -19
-21 -13 -109 -95 -197 -182 -243 -241 -330 -369 -301 -439 7 -17 29 -39 48
-49 l35 -19 34 24 c52 36 150 132 159 154 13 33 163 216 211 258 24 21 53 46
64 56 19 18 58 41 68 41 16 0 13 -36 -5 -60 -24 -33 -18 -51 11 -33 10 7 29 9
41 6 13 -3 25 -1 30 7 9 15 0 227 -11 258 -11 29 -27 28 -39 -2 -5 -13 -18
-27 -30 -31 -38 -12 -39 4 -3 55 10 13 12 21 5 16 -17 -10 -66 -16 -55 -6 4 4
29 21 54 37 43 28 48 29 63 15 20 -20 34 -8 16 14 -12 13 -11 17 1 25 8 5 14
9 15 9 0 0 0 -73 0 -162z m1100 -11 c71 -49 109 -107 108 -165 0 -28 -9 -63
-23 -87 l-22 -40 7 81 c7 95 -7 133 -60 164 -33 20 -84 80 -67 80 5 0 31 -15
57 -33z m-1016 -248 c0 -6 -4 -7 -10 -4 -5 3 -10 11 -10 16 0 6 5 7 10 4 6 -3
10 -11 10 -16z m337 -95 c-3 -3 -12 -4 -19 -1 -8 3 -5 6 6 6 11 1 17 -2 13 -5z
m-143 -10 c10 -4 16 -18 16 -38 l-1 -31 -13 24 c-7 13 -24 30 -37 37 -23 13
-23 13 -2 14 12 0 28 -3 37 -6z m-114 -19 c-7 -9 -16 -12 -19 -8 -9 12 -41 12
-41 1 0 -15 58 -114 75 -128 8 -7 26 -10 40 -8 l24 5 -17 -30 c-36 -63 -142
-177 -170 -182 -15 -4 -35 -8 -44 -9 -10 -2 -4 9 18 31 19 19 32 38 29 44 -11
16 4 46 28 56 23 11 65 98 53 110 -3 3 -26 -13 -51 -36 -24 -22 -53 -41 -62
-41 -112 -3 -117 -5 -193 -56 -68 -45 -79 -57 -112 -124 -40 -80 -50 -89 -73
-70 -29 24 -16 102 20 118 13 6 43 28 66 49 48 43 159 177 159 191 0 5 7 15
15 22 8 7 12 17 8 24 -3 6 -3 8 2 4 4 -4 15 -2 22 4 21 17 140 46 192 47 38 1
42 -1 31 -14z m230 -75 c9 -16 8 -18 -5 -14 -8 4 -15 12 -15 20 0 20 7 17 20
-6z m101 0 c21 0 23 -8 10 -28 -7 -11 -16 -10 -50 7 -49 25 -53 36 -10 27 17
-3 40 -6 50 -6z m130 -16 c17 -8 46 -17 66 -18 42 -4 73 -35 73 -72 0 -33 -12
-30 -30 8 -21 44 -48 51 -100 25 -57 -29 -86 -83 -95 -172 -7 -65 -10 -73 -50
-115 -30 -31 -46 -59 -53 -90 l-10 -45 -1 42 c-1 28 10 64 34 114 29 61 35 85
35 139 1 94 14 141 50 173 35 31 41 32 81 11z m-1391 -44 c-6 -11 -13 -20 -16
-20 -2 0 0 9 6 20 6 11 13 20 16 20 2 0 0 -9 -6 -20z m1247 -12 c-3 -8 -6 -5
-6 6 -1 11 2 17 5 13 3 -3 4 -12 1 -19z m-1284 -48 c-20 -35 -20 -35 -64 -15
-35 15 -32 18 11 16 14 -1 34 5 45 13 28 21 29 20 8 -14z m-423 -38 c0 -5 10
-13 23 -19 19 -9 13 -12 -47 -26 -38 -9 -73 -20 -79 -26 -11 -11 -2 -36 29
-78 9 -13 12 -23 6 -23 -16 0 -52 64 -52 94 0 19 10 32 38 49 54 35 82 44 82
29z m1511 -42 c-16 -14 -40 -43 -54 -66 -42 -69 -248 -217 -320 -231 -18 -3
-37 -10 -44 -15 -7 -5 -20 -7 -30 -4 -10 3 -27 -2 -38 -10 -19 -14 -19 -16 -2
-25 9 -6 17 -15 17 -20 0 -11 -41 -9 -50 2 -3 4 -27 13 -55 21 -33 10 -54 23
-62 38 -13 26 -66 52 -88 44 -22 -9 -38 -70 -30 -117 4 -23 7 -64 6 -91 -1
-27 2 -47 5 -43 4 3 15 2 25 -4 16 -8 17 -14 8 -31 -9 -18 -17 -20 -55 -14
-25 3 -54 11 -65 16 -20 11 -20 11 1 45 41 67 41 218 0 295 -15 27 -13 30 20
30 19 0 49 -14 81 -37 152 -109 376 -93 547 39 52 41 156 159 182 207 9 19 14
21 21 10 6 -10 0 -22 -20 -39z m-268 -12 c-40 -64 -64 -88 -105 -108 l-38 -18
0 23 c0 25 -17 35 -57 35 -26 0 -26 0 -7 21 25 28 81 56 147 74 88 23 91 22
60 -27z m656 -26 l0 -57 -15 40 c-8 22 -12 50 -9 63 10 41 25 12 24 -46z m86
-38 c-9 -16 -14 -21 -11 -11 3 10 6 37 7 60 l1 42 10 -31 c8 -24 6 -37 -7 -60z
m-1927 50 c-7 -15 -14 -21 -16 -15 -5 16 5 41 17 41 7 0 6 -10 -1 -26z m1547
9 c-25 -61 -55 -169 -55 -201 1 -32 21 -120 44 -187 4 -11 -7 6 -24 38 -39 72
-46 134 -26 207 9 30 21 79 27 108 8 34 17 52 26 52 11 0 13 -5 8 -17z m-1580
-10 c-3 -10 -9 -39 -12 -65 -6 -46 -6 -47 -29 -31 -23 15 -70 81 -63 87 5 4
81 24 98 25 9 1 11 -5 6 -16z m316 7 c5 0 9 -7 9 -15 0 -20 -6 -19 -32 7 -17
17 -18 20 -4 15 10 -4 22 -7 27 -7z m2209 -162 c35 -53 60 -127 60 -179 0 -11
-10 -43 -22 -72 -20 -47 -23 -49 -29 -27 -4 14 -7 47 -8 73 -1 27 -5 56 -10
65 -5 9 -11 43 -14 75 -3 40 -12 67 -29 90 -14 17 -30 43 -37 55 l-13 24 32
-24 c17 -12 49 -49 70 -80z m-2174 60 c18 -20 18 -21 1 -15 -10 4 -25 7 -33 7
-8 0 -11 6 -8 15 8 20 18 19 40 -7z m677 15 c-7 -2 -19 -2 -25 0 -7 3 -2 5 12
5 14 0 19 -2 13 -5z m177 -7 c0 -8 -104 -63 -130 -70 -14 -4 9 11 50 33 85 45
80 42 80 37z m-568 -49 c-9 -10 -9 -28 -2 -67 13 -68 13 -70 -4 -70 -8 0 -17
-11 -20 -25 -7 -26 -35 -49 -76 -60 -20 -5 -18 -2 10 15 19 12 41 29 48 38 18
24 15 102 -7 138 -20 34 -14 61 13 51 8 -3 18 -1 22 4 4 8 9 8 17 0 7 -7 7
-14 -1 -24z m318 -19 c0 -5 -7 -8 -15 -8 -17 0 -18 2 -9 25 5 13 8 14 15 3 5
-7 9 -16 9 -20z m963 -66 c-35 -47 -70 -67 -100 -56 -43 15 -38 31 11 38 47 7
94 48 97 84 1 9 4 4 6 -12 3 -18 -2 -38 -14 -54z m-1536 55 c2 -2 -2 -18 -8
-36 -6 -17 -8 -39 -5 -48 6 -13 0 -15 -37 -10 -23 3 -48 3 -55 -2 -7 -4 20
-12 65 -19 125 -20 153 -33 58 -28 -48 3 -108 14 -148 28 l-68 24 40 18 c29
12 43 25 47 44 4 15 9 31 12 36 4 7 90 1 99 -7z m184 -18 c15 -28 14 -86 -1
-104 -15 -18 -40 -19 -74 -4 -21 10 -23 15 -14 34 l10 23 29 -32 28 -31 -2 37
c-2 27 -10 42 -32 59 -17 12 -34 26 -39 31 -6 4 11 8 37 8 37 0 49 -4 58 -21z
m-141 -9 c0 -12 -28 -25 -36 -17 -9 9 6 27 22 27 8 0 14 -5 14 -10z m-388 -93
c15 -12 15 -14 -3 -25 -26 -17 -29 -15 -29 13 0 28 7 30 32 12z m1701 -85 l67
-3 6 31 c7 33 44 44 44 12 0 -10 7 -28 16 -40 15 -22 15 -22 -34 -22 -32 0
-65 -8 -97 -25 -48 -24 -70 -24 -62 -2 2 7 -6 33 -19 59 -13 26 -24 58 -23 70
0 14 7 4 17 -27 l17 -50 68 -3z m183 38 c1 -48 0 -50 -17 -34 -24 21 -24 60
-1 73 9 6 17 11 17 11 0 0 0 -23 1 -50z m-1300 -100 c-7 -41 -12 -80 -9 -86 6
-17 48 -32 111 -39 35 -5 52 -11 52 -21 0 -22 21 -17 51 12 15 15 29 21 33 16
3 -6 -10 -20 -29 -32 -38 -23 -54 -28 -97 -29 -26 -1 -28 -4 -28 -41 l0 -40
-37 6 c-21 3 -46 12 -57 20 -20 14 -45 20 -33 8 8 -8 -13 -64 -24 -64 -17 0
-14 59 7 134 8 28 15 56 16 63 1 7 5 10 10 7 16 -10 8 9 -9 22 -15 10 -21 10
-35 -3 -16 -14 -18 -13 -23 13 -13 55 -16 62 -32 68 -30 12 -41 -12 -41 -94
-1 -88 -5 -100 -31 -100 -25 0 -46 -26 -30 -35 8 -6 7 -10 -4 -16 -8 -5 -14
-17 -12 -27 2 -9 4 -21 4 -25 1 -5 27 -36 59 -69 61 -65 46 -64 -43 2 -72 53
-88 75 -81 103 3 13 -1 51 -10 83 -8 32 -17 93 -20 135 l-4 75 68 -7 c70 -8
178 2 224 19 14 6 34 22 45 35 18 25 18 25 21 4 1 -12 -4 -56 -12 -97z m-426
70 c58 -20 84 -46 33 -34 -27 6 -93 42 -93 50 0 5 -3 6 60 -16z m1470 -100 c5
0 1 -15 -10 -33 -28 -47 -50 -151 -50 -238 0 -69 -2 -77 -27 -101 -60 -55
-258 -158 -343 -179 -86 -21 -333 -19 -392 4 -43 17 -55 27 -56 52 -1 17 -36
22 -92 14 -30 -4 -92 -8 -137 -8 -79 -1 -83 0 -80 21 2 17 -12 29 -64 60 -76
44 -102 43 -97 -5 2 -25 12 -35 47 -54 l44 -23 -92 0 -91 0 16 25 c14 21 19
23 32 13 14 -11 15 -10 8 7 -17 43 -18 58 -6 98 7 23 14 48 16 54 2 9 11 6 27
-10 13 -12 22 -25 20 -29 -2 -4 31 -28 74 -53 109 -64 241 -103 257 -76 4 5
30 12 59 16 28 3 60 9 70 11 21 6 22 42 2 68 -20 26 -19 69 3 104 30 51 89
109 115 116 14 3 28 14 31 24 4 9 14 27 24 40 18 23 18 23 14 -18 -3 -26 2
-49 12 -65 l16 -25 -37 0 c-32 0 -41 -5 -55 -31 -15 -25 -21 -28 -37 -19 -26
13 -24 14 -51 -22 -17 -24 -19 -30 -7 -25 10 4 17 2 17 -3 0 -6 -7 -10 -15
-10 -22 0 -18 -12 13 -36 15 -12 24 -26 20 -30 -4 -4 -15 -1 -24 7 -15 12 -17
12 -12 -1 6 -20 47 -40 83 -40 65 0 182 74 204 129 l12 29 23 -23 c13 -13 26
-34 29 -46 8 -30 -13 -105 -24 -87 -6 10 -18 7 -54 -10 -25 -12 -52 -22 -61
-22 -9 0 -12 -5 -8 -12 4 -6 3 -8 -3 -5 -6 4 -24 2 -41 -4 -23 -8 -29 -15 -25
-30 7 -24 42 -49 75 -53 12 -1 31 -6 41 -11 55 -24 257 27 315 80 41 38 40 52
-2 30 -16 -8 -35 -15 -42 -15 -8 0 -39 -9 -69 -19 -54 -19 -54 -19 -42 1 7 10
27 26 45 35 21 10 31 21 28 30 -3 8 -1 11 4 8 6 -3 10 -1 10 4 0 6 10 11 22
11 12 0 41 20 68 48 50 50 71 66 107 82 12 5 28 18 35 30 7 11 18 20 25 20 7
0 13 10 14 23 0 12 9 54 19 92 l18 70 -24 37 c-33 51 -30 55 11 13 20 -19 40
-35 45 -35z m280 9 c35 -7 72 -27 115 -59 35 -26 66 -46 69 -43 8 9 94 -180
110 -243 9 -34 16 -92 16 -128 0 -55 -4 -70 -22 -88 -28 -28 -34 -12 -19 47
29 116 -8 260 -91 350 -27 30 -56 55 -63 55 -7 0 -43 16 -79 35 -95 50 -156
44 -156 -15 0 -35 18 -54 77 -82 24 -11 48 -29 53 -39 20 -36 70 -264 81 -367
6 -58 17 -123 25 -145 28 -78 12 -122 -54 -156 -62 -31 -91 -34 -37 -4 32 18
51 35 51 48 1 11 4 27 6 35 3 8 3 12 1 8 -7 -13 -61 -9 -96 6 -18 8 -45 26
-62 40 l-30 26 50 -16 c28 -9 65 -23 83 -32 52 -25 46 -9 -17 43 -33 27 -57
53 -55 57 3 4 17 -6 32 -22 l28 -29 27 25 c27 25 30 36 28 109 -4 126 -57 345
-92 380 -15 16 -23 17 -37 8 -9 -6 -16 -18 -16 -27 2 -13 -1 -14 -11 -6 -11 9
-12 6 -8 -11 4 -15 3 -20 -5 -15 -7 4 -12 18 -12 32 0 24 -14 32 -25 15 -9
-16 -14 -241 -4 -246 9 -6 1 -65 -11 -78 -8 -9 -16 47 -26 183 -7 95 -14 113
-46 118 -27 4 -40 -34 -45 -138 -5 -88 -3 -106 23 -188 23 -73 34 -93 54 -102
l25 -12 -34 -14 c-46 -19 -51 -18 -51 14 0 16 -10 80 -21 143 -31 161 -31 333
0 411 29 74 39 82 84 63 42 -17 47 -18 47 -7 0 4 -16 14 -35 21 -89 32 56 65
175 40z m-776 -76 c14 -20 23 -40 20 -45 -7 -10 -24 -1 -24 14 0 5 -9 23 -21
39 -11 16 -16 29 -10 29 6 0 21 -17 35 -37z m1020 -14 c15 -12 25 -24 22 -26
-3 -3 -19 6 -36 21 -37 31 -25 35 14 5z m-1020 -64 c3 -8 2 -15 -2 -15 -5 0
-21 -20 -37 -45 -15 -25 -29 -44 -31 -42 -5 4 50 117 57 117 4 0 9 -7 13 -15z
m1081 -87 c24 -83 17 -112 -9 -33 -12 39 -30 86 -40 105 l-17 35 25 -28 c14
-15 32 -51 41 -79z m-1971 40 c4 -24 3 -38 -4 -38 -5 0 -10 19 -10 42 0 49 5
47 14 -4z m761 -18 c-3 -5 -14 -10 -23 -10 -15 0 -15 2 -2 10 20 13 33 13 25
0z m-505 -43 c0 -13 -5 -17 -16 -13 -9 3 -18 6 -20 6 -2 0 -4 6 -4 14 0 9 9
14 20 13 12 -1 20 -8 20 -20z m1470 -12 c0 -5 -5 -3 -10 5 -5 8 -10 20 -10 25
0 6 5 3 10 -5 5 -8 10 -19 10 -25z m-1725 -12 c-15 -73 -17 -79 -25 -58 -4 11
-3 32 2 48 11 30 28 37 23 10z m-288 -25 c-3 -7 -5 -2 -5 12 0 14 2 19 5 13 2
-7 2 -19 0 -25z m1626 -133 c4 -37 3 -44 -4 -27 -5 13 -18 26 -30 29 -20 6
-20 6 2 29 12 13 23 23 24 21 1 -1 5 -24 8 -52z m-374 9 c-36 -27 -79 -48 -91
-46 -5 1 -8 -2 -8 -7 0 -8 -70 -41 -87 -41 -3 0 25 21 63 46 38 25 68 50 66
55 -1 6 2 8 8 4 5 -3 18 -1 27 4 10 6 27 11 37 11 16 0 12 -6 -15 -26z m1341
-16 c29 -39 44 -118 20 -103 -5 3 -10 16 -10 28 0 12 -11 42 -25 66 -14 23
-25 45 -25 47 0 12 13 0 40 -38z m-1985 7 c28 -13 43 -24 35 -24 -8 0 -37 11
-65 24 -27 14 -43 25 -35 24 8 0 38 -11 65 -24z m909 -46 c-30 -31 -74 -59
-94 -59 -10 0 105 85 119 89 3 0 -8 -13 -25 -30z m-579 -394 c45 -93 85 -179
89 -190 l7 -20 -19 20 c-10 11 -38 67 -62 124 -29 69 -65 132 -107 188 -34 46
-70 97 -78 114 -25 47 -52 69 -85 69 -17 0 -41 6 -53 14 -16 11 -33 12 -67 6
-89 -17 -272 -23 -715 -24 l-450 -1 -3 -26 c-4 -32 63 -204 124 -318 24 -46
44 -93 43 -105 0 -13 -7 -3 -20 27 -22 55 -127 257 -202 390 -27 49 -47 91
-44 94 3 3 122 -5 264 -17 247 -21 274 -22 618 -10 198 7 407 18 465 24 l105
11 54 -100 c30 -55 91 -176 136 -270z m1191 280 c41 0 40 -22 -2 -47 -43 -25
-30 -37 15 -14 43 23 44 21 15 -24 -15 -22 -30 -54 -33 -72 -7 -33 -8 -32 -26
27 -10 33 -20 85 -23 115 -4 51 -3 54 11 35 9 -11 27 -20 43 -20z m-1174 -15
c-30 -3 -57 -12 -62 -20 -10 -17 -12 -15 -33 26 l-16 30 82 -15 82 -16 -53 -5z
m897 13 c-3 -19 2 -31 23 -53 18 -20 19 -23 4 -17 -10 4 -26 7 -37 7 -14 0
-19 7 -19 29 0 25 6 33 28 40 1 1 1 -2 1 -6z m-706 -10 c-13 -2 -35 -2 -50 0
-16 2 -5 4 22 4 28 0 40 -2 28 -4z m546 -79 c1 -7 -5 -14 -11 -17 -9 -3 -13
10 -14 47 l-2 51 13 -35 c8 -19 14 -40 14 -46z m115 -20 c27 -11 18 -33 -16
-38 -18 -2 -90 -14 -159 -25 -127 -21 -271 -28 -254 -13 6 5 64 17 131 26 67
10 152 26 190 36 80 21 87 22 108 14z m-241 -21 c-7 -2 -19 -2 -25 0 -7 3 -2
5 12 5 14 0 19 -2 13 -5z m-210 -33 c16 -14 -7 -16 -51 -5 -24 6 -40 14 -36
18 9 8 75 -2 87 -13z m-203 -19 c-5 -11 -10 -28 -10 -39 0 -11 -9 -30 -20 -43
-19 -23 -19 -23 1 31 22 59 28 70 35 70 3 0 0 -9 -6 -19z m174 -8 c4 -4 -11
-12 -32 -18 -28 -7 -56 -28 -102 -78 l-63 -68 23 -41 c18 -33 20 -42 9 -49
-11 -6 -16 0 -20 24 l-6 32 -8 -33 -8 -33 -21 53 c-20 47 -20 54 -7 61 29 15
71 80 77 119 l7 38 72 0 c39 0 75 -3 79 -7z m781 -56 c-6 -29 -13 -36 -43 -46
-21 -7 -44 -15 -52 -17 -8 -3 3 5 25 18 22 13 47 37 55 55 19 38 23 36 15 -10z
m-1846 -8 c36 -22 64 -77 64 -125 0 -71 -40 -113 -127 -128 -42 -8 -42 -8 -21
62 7 21 5 23 -21 16 -39 -9 -51 -21 -36 -36 7 -7 12 -20 12 -29 0 -15 -5 -16
-32 -8 -32 8 -78 50 -78 70 0 5 11 9 23 9 13 0 31 8 40 18 17 18 47 84 47 101
0 12 -28 41 -39 41 -16 0 -61 -54 -71 -84 -9 -29 -10 -28 -6 13 3 24 13 56 24
70 16 22 29 27 83 31 69 5 103 0 138 -21z m1021 -34 c15 -18 16 -17 -32 -40
l-37 -17 6 -58 c6 -66 -2 -104 -17 -80 -6 8 -10 25 -10 37 0 12 -8 38 -17 58
l-17 35 39 40 c42 43 65 49 85 25z m-223 -37 c-9 -6 -8 -18 6 -56 20 -57 20
-62 8 -62 -5 0 -16 19 -24 43 -8 23 -22 58 -31 78 l-15 36 34 -15 c23 -11 31
-19 22 -24z m579 16 c99 -14 178 -13 264 2 l25 4 -25 -10 c-59 -26 -125 -31
-262 -18 -101 9 -138 15 -138 25 0 16 3 16 136 -3z m-147 -11 c-3 -37 -18 -48
-65 -48 l-48 0 -8 -44 c-8 -48 -23 -71 -45 -71 -11 0 -13 5 -8 18 5 9 13 37
20 62 9 34 18 46 34 48 11 2 21 8 21 13 0 15 -46 10 -60 -6 -6 -8 -15 -14 -18
-13 -25 3 -32 -6 -32 -38 0 -35 -14 -74 -28 -74 -4 0 -5 27 -4 61 4 54 6 61
30 71 46 19 213 35 211 21z m45 -19 c13 -5 12 -9 -8 -25 -13 -10 -26 -19 -29
-19 -4 0 15 50 20 50 1 0 8 -3 17 -6z m63 -10 c-3 -3 -12 -4 -19 -1 -8 3 -5 6
6 6 11 1 17 -2 13 -5z m232 -20 c8 -7 -164 -2 -189 6 -14 4 22 5 80 2 58 -2
107 -6 109 -8z m-407 -54 c-2 -17 -10 -30 -18 -30 -8 0 -14 -4 -14 -10 0 -5 6
-10 14 -10 8 0 27 -5 43 -11 l28 -11 -24 -9 c-16 -6 -28 -5 -37 2 -8 6 -25 8
-40 5 l-26 -7 21 27 c12 15 21 40 21 55 0 21 5 29 18 29 15 0 18 -6 14 -30z
m-328 -70 c8 0 19 7 26 15 20 24 57 19 62 -8 4 -22 2 -23 -46 -23 -54 1 -66 9
-64 41 1 17 1 17 5 -2 2 -13 10 -23 17 -23z m1256 15 c11 -13 10 -14 -4 -9 -9
3 -16 10 -16 15 0 13 6 11 20 -6z m44 0 c16 -12 17 -15 4 -15 -8 0 -21 7 -28
15 -16 19 -1 19 24 0z m-1114 -15 c0 -16 -7 -20 -30 -20 -16 0 -30 5 -30 10 0
6 9 10 19 10 11 0 23 5 26 10 10 16 15 12 15 -10z m-211 -89 c34 -94 34 -94
22 -87 -9 6 -46 104 -56 151 -11 48 1 26 34 -64z m444 70 c-5 -19 -73 -58 -73
-42 0 10 60 61 72 61 3 0 4 -8 1 -19z m42 9 c3 -5 1 -10 -4 -10 -6 0 -11 5
-11 10 0 6 2 10 4 10 3 0 8 -4 11 -10z m-214 -130 c-22 -19 -41 -26 -41 -15 0
5 51 34 60 34 3 0 -6 -9 -19 -19z m-1701 -45 c0 -5 -5 -3 -10 5 -5 8 -10 20
-10 25 0 6 5 3 10 -5 5 -8 10 -19 10 -25z m1455 -133 c-6 -4 -26 -20 -46 -34
l-36 -27 -69 25 c-38 13 -57 22 -41 19 89 -18 114 -17 153 3 42 23 54 27 39
14z"/>
<path d="M1672 1453 c2 -15 10 -27 20 -29 11 -1 15 3 11 12 -3 8 0 14 7 14 18
0 3 17 -20 23 -18 5 -21 1 -18 -20z"/>
<path d="M2890 1360 c-12 -17 -25 -28 -30 -25 -5 3 -12 1 -15 -5 -4 -6 -1 -9
6 -8 7 2 13 -3 14 -11 0 -24 23 -24 38 1 19 30 30 78 18 78 -5 0 -19 -14 -31
-30z"/>
<path d="M2810 1305 c-11 -13 -10 -14 4 -9 9 3 16 10 16 15 0 13 -6 11 -20 -6z"/>
<path d="M1500 767 c0 -13 13 -44 30 -70 44 -70 99 -76 100 -10 0 32 -71 103
-103 103 -22 0 -27 -5 -27 -23z"/>
</g>
</svg>
